<svg xmlns="http://www.w3.org/2000/svg" width="24" height="24" viewBox="0 0 24 24" color="currentColor" fill="currentColor" fill-rule="evenodd"><path d="M9 15.9951C10.4319 15.9952 11.7044 16.6861 12.5029 17.752C13.3018 16.6913 14.5722 16.0049 16 16.0049H22.1299L22.2197 16.0098C22.6608 16.0547 23.0049 16.4269 23.0049 16.8799C23.0049 17.3328 22.6608 17.7051 22.2197 17.75L22.1299 17.7549H16C14.5532 17.7549 13.375 18.9331 13.375 20.3799V21.25C13.3749 21.7331 12.9831 22.1249 12.5 22.125C12.0169 22.1249 11.6251 21.7331 11.625 21.25V20.3701C11.625 18.9234 10.4467 17.7452 9 17.7451H2.87988C2.39676 17.7451 2.00501 17.3532 2.00488 16.8701C2.00488 16.3869 2.39669 15.9952 2.87988 15.9951H9ZM12.5 2.00488C18.3038 2.00495 22.9951 6.70738 22.9951 12.5V13.3799C22.9951 13.8631 22.6033 14.2548 22.1201 14.2549C21.6369 14.2548 21.2451 13.8631 21.2451 13.3799V12.5C21.2451 7.6727 17.3361 3.75495 12.5 3.75488C7.6633 3.75494 3.75488 7.66329 3.75488 12.5V13.3799C3.75488 13.8631 3.36313 14.2549 2.87988 14.2549C2.39669 14.2548 2.00488 13.8631 2.00488 13.3799V12.5C2.00488 6.69679 6.6968 2.00494 12.5 2.00488ZM12.5 6.375C15.8832 6.375 18.625 9.11675 18.625 12.5V13.3799C18.6249 13.8631 18.2332 14.2549 17.75 14.2549C17.2668 14.2549 16.8751 13.8631 16.875 13.3799V12.5C16.875 10.0833 14.9167 8.125 12.5 8.125C10.0832 8.125 8.125 10.0832 8.125 12.5V13.3799C8.12494 13.8631 7.73321 14.2549 7.25 14.2549C6.76679 14.2549 6.37506 13.8631 6.375 13.3799V12.5C6.375 9.11675 9.11675 6.375 12.5 6.375ZM12.5 10.75C13.4665 10.75 14.25 11.5335 14.25 12.5C14.2499 13.4664 13.4665 14.25 12.5 14.25C11.5335 14.25 10.7501 13.4664 10.75 12.5C10.75 11.5335 11.5335 10.75 12.5 10.75Z"></path></svg>