<svg xmlns="http://www.w3.org/2000/svg" width="14" height="14" viewBox="0 0 24 24" color="currentColor" fill="currentColor" fill-rule="evenodd">
<path d="M12.2401 8.96004C10.6561 8.96004 9.36011 7.66404 9.36011 6.08004C9.36011 4.49604 10.6561 3.20004 12.2401 3.20004C13.8241 3.20004 15.1201 4.49604 15.1201 6.08004C15.1201 7.66404 13.8241 8.96004 12.2401 8.96004ZM12.2401 5.12004C11.7121 5.12004 11.2801 5.55204 11.2801 6.08004C11.2801 6.60804 11.7121 7.04004 12.2401 7.04004C12.7681 7.04004 13.2001 6.60804 13.2001 6.08004C13.2001 5.55204 12.7681 5.12004 12.2401 5.12004Z M18 14.7201C16.416 14.7201 15.12 13.4241 15.12 11.8401C15.12 10.2561 16.416 8.96011 18 8.96011C19.584 8.96011 20.88 10.2561 20.88 11.8401C20.88 13.4241 19.584 14.7201 18 14.7201ZM18 10.8801C17.472 10.8801 17.04 11.3121 17.04 11.8401C17.04 12.3681 17.472 12.8001 18 12.8001C18.528 12.8001 18.96 12.3681 18.96 11.8401C18.96 11.3121 18.528 10.8801 18 10.8801Z M6.48004 14.7201C4.89604 14.7201 3.60004 13.4241 3.60004 11.8401C3.60004 10.2561 4.89604 8.96011 6.48004 8.96011C8.06404 8.96011 9.36004 10.2561 9.36004 11.8401C9.36004 13.4241 8.06404 14.7201 6.48004 14.7201ZM6.48004 10.8801C5.95204 10.8801 5.52004 11.3121 5.52004 11.8401C5.52004 12.3681 5.95204 12.8001 6.48004 12.8001C7.00804 12.8001 7.44004 12.3681 7.44004 11.8401C7.44004 11.3121 7.00804 10.8801 6.48004 10.8801Z M12.2401 20.48C10.6561 20.48 9.36011 19.184 9.36011 17.6C9.36011 16.016 10.6561 14.72 12.2401 14.72C13.8241 14.72 15.1201 16.016 15.1201 17.6C15.1201 19.184 13.8241 20.48 12.2401 20.48ZM12.2401 16.64C11.7121 16.64 11.2801 17.072 11.2801 17.6C11.2801 18.128 11.7121 18.56 12.2401 18.56C12.7681 18.56 13.2001 18.128 13.2001 17.6C13.2001 17.072 12.7681 16.64 12.2401 16.64Z"/>
</svg>